<svg xmlns="http://www.w3.org/2000/svg" width="1280" height="760" viewBox="0 0 1280 760" role="img" aria-labelledby="title desc">
  <title id="title">FoxClaw Telegram 功能预览</title>
  <desc id="desc">Telegram 风格的 FoxClaw setup 和 auth 管理面板示意图。</desc>
  <defs>
    <filter id="shadow" x="-20%" y="-20%" width="140%" height="140%">
      <feDropShadow dx="0" dy="18" stdDeviation="18" flood-color="#152033" flood-opacity="0.16"/>
    </filter>
    <style>
      .label { font: 600 24px Arial, "Noto Sans CJK SC", sans-serif; fill: #111827; }
      .body { font: 500 18px Arial, "Noto Sans CJK SC", sans-serif; fill: #243244; }
      .muted { font: 500 15px Arial, "Noto Sans CJK SC", sans-serif; fill: #607086; }
      .small { font: 600 14px Arial, "Noto Sans CJK SC", sans-serif; fill: #42526a; }
      .button { font: 700 15px Arial, "Noto Sans CJK SC", sans-serif; fill: #1f6fb2; }
      .top { font: 700 18px Arial, "Noto Sans CJK SC", sans-serif; fill: #fff; }
      .mono { font: 600 16px ui-monospace, SFMono-Regular, Menlo, monospace; fill: #334155; }
    </style>
  </defs>
  <rect width="1280" height="760" rx="0" fill="#f3f7fb"/>
  <circle cx="112" cy="102" r="58" fill="#d7edf9"/>
  <circle cx="1185" cy="660" r="74" fill="#e5f4ec"/>
  <text x="80" y="86" class="label">手机上的 Codex 控制台</text>
  <text x="80" y="118" class="body">发任务、看进度、点审批、切线程、轮转账号，都在 Telegram 面板里完成。</text>

  <g filter="url(#shadow)" transform="translate(96 164)">
    <rect x="0" y="0" width="520" height="492" rx="36" fill="#17212b"/>
    <rect x="18" y="18" width="484" height="456" rx="28" fill="#dcebf5"/>
    <rect x="18" y="18" width="484" height="58" rx="28" fill="#229ed9"/>
    <text x="48" y="55" class="top">FoxClaw Bot · /setup</text>
    <rect x="44" y="104" width="432" height="236" rx="18" fill="#ffffff"/>
    <text x="70" y="142" class="label">Setup · 当前线程</text>
    <text x="70" y="176" class="body">模型：GPT-5.5</text>
    <text x="70" y="206" class="body">推理强度：High</text>
    <text x="70" y="236" class="body">模式：📝 Plan</text>
    <text x="70" y="266" class="body">权限：Workspace write</text>
    <text x="70" y="296" class="body">Fast tier：⚡ 开启</text>
    <text x="70" y="326" class="muted">每个聊天/线程都可以独立配置。</text>
    <g transform="translate(44 360)">
      <rect x="0" y="0" width="100" height="42" rx="12" fill="#e9f5ff"/>
      <text x="25" y="27" class="button">⚡ Fast</text>
      <rect x="112" y="0" width="96" height="42" rx="12" fill="#e9f5ff"/>
      <text x="135" y="27" class="button">🔒 只读</text>
      <rect x="220" y="0" width="96" height="42" rx="12" fill="#e9f5ff"/>
      <text x="239" y="27" class="button">✍️ 默认</text>
      <rect x="328" y="0" width="104" height="42" rx="12" fill="#e9f5ff"/>
      <text x="345" y="27" class="button">🛠️ 完全</text>
      <rect x="0" y="54" width="132" height="42" rx="12" fill="#eaf8ef"/>
      <text x="34" y="81" class="button">📝 Plan</text>
      <rect x="144" y="54" width="132" height="42" rx="12" fill="#eef2ff"/>
      <text x="177" y="81" class="button">Agent</text>
    </g>
  </g>

  <g filter="url(#shadow)" transform="translate(664 164)">
    <rect x="0" y="0" width="520" height="492" rx="36" fill="#17212b"/>
    <rect x="18" y="18" width="484" height="456" rx="28" fill="#dcebf5"/>
    <rect x="18" y="18" width="484" height="58" rx="28" fill="#229ed9"/>
    <text x="48" y="55" class="top">FoxClaw Bot · /auth</text>
    <rect x="44" y="104" width="432" height="258" rx="18" fill="#ffffff"/>
    <text x="70" y="142" class="label">Auth · 多账号轮转</text>
    <text x="70" y="176" class="body">当前：personal · GPT-5.5</text>
    <text x="70" y="206" class="body">限制触发时自动切换并重试。</text>
    <g transform="translate(70 232)">
      <rect x="0" y="0" width="376" height="34" rx="10" fill="#f7fafc"/>
      <text x="14" y="23" class="mono">✅ 1 personal</text>
      <text x="256" y="23" class="small">32% used</text>
      <rect x="0" y="44" width="376" height="34" rx="10" fill="#f7fafc"/>
      <text x="14" y="67" class="mono">✅ 2 team</text>
      <text x="280" y="67" class="small">ready</text>
      <rect x="0" y="88" width="376" height="34" rx="10" fill="#f7fafc"/>
      <text x="14" y="111" class="mono">⏸️ 3 trial</text>
      <text x="256" y="111" class="small">disabled</text>
    </g>
    <g transform="translate(44 386)">
      <rect x="0" y="0" width="120" height="42" rx="12" fill="#e9f5ff"/>
      <text x="31" y="27" class="button">✅ 启用</text>
      <rect x="132" y="0" width="120" height="42" rx="12" fill="#fff4e6"/>
      <text x="163" y="27" class="button">⏸️ 暂停</text>
      <rect x="264" y="0" width="168" height="42" rx="12" fill="#eaf8ef"/>
      <text x="307" y="27" class="button">添加账号</text>
    </g>
  </g>

  <g transform="translate(158 686)">
    <rect x="0" y="-30" width="138" height="46" rx="23" fill="#ffffff"/>
    <text x="25" y="0" class="small">发任务</text>
    <rect x="160" y="-30" width="138" height="46" rx="23" fill="#ffffff"/>
    <text x="185" y="0" class="small">看进度</text>
    <rect x="320" y="-30" width="138" height="46" rx="23" fill="#ffffff"/>
    <text x="345" y="0" class="small">点审批</text>
    <rect x="480" y="-30" width="138" height="46" rx="23" fill="#ffffff"/>
    <text x="505" y="0" class="small">切线程</text>
    <rect x="640" y="-30" width="168" height="46" rx="23" fill="#ffffff"/>
    <text x="675" y="0" class="small">多账号轮转</text>
  </g>
</svg>
